<?xml version="1.0" encoding="utf-8"?>
<!-- Svg Vector Icons : http://www.onlinewebfonts.com/icon -->
<!DOCTYPE svg PUBLIC "-//W3C//DTD SVG 1.1//EN" "http://www.w3.org/Graphics/SVG/1.1/DTD/svg11.dtd">
<svg version="1.1" xmlns="http://www.w3.org/2000/svg" xmlns:xlink="http://www.w3.org/1999/xlink" x="0px" y="0px" viewBox="0 0 256 256" enable-background="new 0 0 256 256" xml:space="preserve">
<metadata> Svg Vector Icons : http://www.onlinewebfonts.com/icon </metadata>
<g><g><g><path fill="#B68D40" d="M90.4,10.5c-27.8,3.6-49.9,24.8-55,52.6c-1.1,5.8-1,16.2,0.1,22c1.4,7.4,3.1,11.7,13.9,35.1c8.5,18.4,10.4,22.8,10.1,23.8c-0.7,2.9-1.1,12.4-0.6,20.2c1.6,32.8,9.9,62.7,20.7,74.5c3,3.4,5.5,5,9.1,6.2c5.6,1.9,6.9,1.2,10.2-5.6c2.7-5.6,5.8-14.7,12-34.9c9.8-32.2,13.9-41.7,17.5-40.7c3.6,1,7.8,11.5,18.7,47.6c6.2,20.4,10.6,31.4,13.5,33.7c0.6,0.5,1.8,0.9,2.5,0.9c2,0,6.7-1.7,8.9-3.2c11.7-8.1,21.2-34.7,24.4-68.9c0.8-8.4,0.9-24.5,0.2-28.6l-0.5-2.8l10.4-22.4c11-23.8,12.1-26.5,13.7-34.1c1.3-6.3,1.4-16.6,0.2-23.1c-4.7-25.9-24.3-46.1-50.1-51.7c-6.5-1.4-19-1.5-24.9-0.2c-5.3,1.2-9.2,2.3-13.7,4.3L128,17l-3.8-1.6C113.7,10.8,101.5,9.1,90.4,10.5z M109.1,20.8c4.9,1,8.3,2.2,13.9,4.9l5,2.3l5.4-2.6c3-1.4,7.4-3.1,9.8-3.8c29.4-7.8,59,9.5,66.7,38.8c1.6,6.1,2,16.5,0.9,22.5c-1.3,6.9-3,11-14.3,35.5l-10.9,23.5l0.7,2.4c1,3.2,1.4,15.3,0.7,24.3c-2.2,29-9.7,55-18.4,64.1c-1.2,1.2-2.4,2.3-2.6,2.3c-1,0-5.1-12.1-14.2-42c-6.6-21.7-10.6-31-14.9-35.4c-2.8-2.8-4.7-3.6-8.8-3.6c-4,0-5.9,0.8-8.5,3.3c-5.3,5.1-8.6,13.5-19.8,50.2c-4.4,14.6-8.1,25.3-9.3,26.8c-0.6,0.8-0.8,0.7-3.1-1.7c-8.9-9.3-15.8-33.4-18.4-63.4c-0.7-8.3-0.3-22.3,0.7-25l0.7-2.1l-10.8-23.5c-6-12.9-11.4-24.9-12-26.7c-4.8-13.2-3.7-29.6,2.8-42.4c8.3-16,23.9-27.1,41.8-29.3C96.4,19.6,104.6,20,109.1,20.8z"/><path fill="#B68D40" d="M89.8,30.5C77.2,33.2,66.4,41,60.2,51.9c-4.4,7.7-7.2,20.3-5.4,24.3c1.2,2.7,5.5,3.4,7.7,1.2c1.2-1.2,1.3-1.8,1.7-5.3c0.7-8.6,3.7-15.5,9.3-21.5c3.7-3.9,7.7-6.8,12-8.5c3.3-1.3,9-2.6,11.9-2.6c4.2,0,6.9-2.9,5.8-6.3c-0.9-2.7-2.4-3.4-6.6-3.4C94.4,29.8,91.4,30.1,89.8,30.5z"/></g></g></g>
</svg>